<svg xmlns="http://www.w3.org/2000/svg" xmlns:xlink="http://www.w3.org/1999/xlink" width="500" zoomAndPan="magnify" viewBox="0 0 375 374.999991" height="500" preserveAspectRatio="xMidYMid meet" version="1.0"><defs><g/></defs><g fill="#c63d2f" fill-opacity="0.4"><g transform="translate(97.801496, 215.659059)"><g><path d="M 1.609375 0 C 1.285156 0 1.03125 -0.101562 0.84375 -0.3125 C 0.65625 -0.53125 0.585938 -0.828125 0.640625 -1.203125 L 7.25 -55.15625 C 7.300781 -55.539062 7.445312 -55.835938 7.6875 -56.046875 C 7.925781 -56.265625 8.207031 -56.375 8.53125 -56.375 L 20.9375 -56.375 C 21.257812 -56.375 21.515625 -56.265625 21.703125 -56.046875 C 21.890625 -55.835938 21.957031 -55.539062 21.90625 -55.15625 L 16.828125 -13.375 C 16.722656 -13.101562 16.832031 -12.96875 17.15625 -12.96875 L 32.453125 -12.96875 C 32.828125 -12.96875 33.109375 -12.859375 33.296875 -12.640625 C 33.484375 -12.429688 33.550781 -12.132812 33.5 -11.75 L 32.21875 -1.203125 C 32.050781 -0.398438 31.59375 0 30.84375 0 Z M 1.609375 0 "/></g></g></g><g fill="#c63d2f" fill-opacity="0.4"><g transform="translate(132.671493, 215.659059)"><g><path d="M 37.203125 -44.609375 C 37.148438 -44.234375 37.003906 -43.9375 36.765625 -43.71875 C 36.523438 -43.507812 36.21875 -43.40625 35.84375 -43.40625 L 20.859375 -43.40625 C 20.585938 -43.40625 20.453125 -43.269531 20.453125 -43 L 19.484375 -35.109375 C 19.378906 -34.835938 19.488281 -34.703125 19.8125 -34.703125 L 27.625 -34.703125 C 28 -34.703125 28.28125 -34.59375 28.46875 -34.375 C 28.65625 -34.164062 28.722656 -33.875 28.671875 -33.5 L 27.375 -22.953125 C 27.21875 -22.148438 26.765625 -21.75 26.015625 -21.75 L 18.203125 -21.75 C 17.929688 -21.75 17.796875 -21.613281 17.796875 -21.34375 L 16.828125 -13.375 C 16.722656 -13.101562 16.832031 -12.96875 17.15625 -12.96875 L 32.125 -12.96875 C 32.507812 -12.96875 32.796875 -12.859375 32.984375 -12.640625 C 33.171875 -12.429688 33.234375 -12.132812 33.171875 -11.75 L 31.890625 -1.203125 C 31.835938 -0.828125 31.6875 -0.53125 31.4375 -0.3125 C 31.195312 -0.101562 30.890625 0 30.515625 0 L 1.609375 0 C 1.285156 0 1.03125 -0.101562 0.84375 -0.3125 C 0.65625 -0.53125 0.585938 -0.828125 0.640625 -1.203125 L 7.25 -55.15625 C 7.300781 -55.539062 7.445312 -55.835938 7.6875 -56.046875 C 7.925781 -56.265625 8.207031 -56.375 8.53125 -56.375 L 37.453125 -56.375 C 37.828125 -56.375 38.109375 -56.265625 38.296875 -56.046875 C 38.484375 -55.835938 38.550781 -55.539062 38.5 -55.15625 Z M 37.203125 -44.609375 "/></g></g></g><g fill="#c63d2f" fill-opacity="0.4"><g transform="translate(167.380425, 215.659059)"><g><path d="M 11.59375 0 C 10.84375 0 10.441406 -0.347656 10.390625 -1.046875 L 6.359375 -55.078125 C 6.359375 -55.941406 6.789062 -56.375 7.65625 -56.375 L 20.375 -56.375 C 21.125 -56.375 21.5 -56 21.5 -55.25 L 21.09375 -30.28125 C 21.039062 -30.113281 21.09375 -30.03125 21.25 -30.03125 C 21.414062 -30.03125 21.5 -30.113281 21.5 -30.28125 L 27.46875 -55.25 C 27.625 -56 28.101562 -56.375 28.90625 -56.375 L 38.40625 -56.375 C 39.164062 -56.375 39.546875 -56 39.546875 -55.25 L 39.78125 -30.28125 C 39.78125 -30.175781 39.847656 -30.109375 39.984375 -30.078125 C 40.117188 -30.046875 40.1875 -30.113281 40.1875 -30.28125 L 45.578125 -55.25 C 45.796875 -56 46.253906 -56.375 46.953125 -56.375 L 59.359375 -56.375 C 60.265625 -56.375 60.554688 -55.941406 60.234375 -55.078125 L 43.640625 -1.046875 C 43.429688 -0.347656 42.953125 0 42.203125 0 L 31.40625 0 C 30.65625 0 30.28125 -0.375 30.28125 -1.125 L 30.125 -27.375 C 30.175781 -27.539062 30.132812 -27.609375 30 -27.578125 C 29.863281 -27.554688 29.769531 -27.460938 29.71875 -27.296875 L 23.84375 -1.125 C 23.625 -0.375 23.140625 0 22.390625 0 Z M 11.59375 0 "/></g></g></g><g fill="#c63d2f" fill-opacity="0.4"><g transform="translate(223.59118, 215.659059)"><g><path d="M 25.046875 0 C 24.296875 0 23.945312 -0.375 24 -1.125 L 23.84375 -7.25 C 23.894531 -7.351562 23.863281 -7.445312 23.75 -7.53125 C 23.644531 -7.613281 23.539062 -7.65625 23.4375 -7.65625 L 16.421875 -7.65625 C 16.160156 -7.65625 15.972656 -7.519531 15.859375 -7.25 L 14.328125 -1.125 C 14.171875 -0.375 13.71875 0 12.96875 0 L 0.71875 0 C -0.0820312 0 -0.375 -0.425781 -0.15625 -1.28125 L 17.5625 -55.328125 C 17.769531 -56.023438 18.25 -56.375 19 -56.375 L 33.265625 -56.375 C 34.015625 -56.375 34.414062 -56.023438 34.46875 -55.328125 L 38.890625 -1.28125 L 38.890625 -1.125 C 38.890625 -0.375 38.488281 0 37.6875 0 Z M 19.171875 -19.65625 C 19.054688 -19.382812 19.132812 -19.25 19.40625 -19.25 L 23.1875 -19.25 C 23.351562 -19.25 23.488281 -19.382812 23.59375 -19.65625 L 23.28125 -34.546875 C 23.28125 -34.765625 23.210938 -34.859375 23.078125 -34.828125 C 22.941406 -34.804688 22.875 -34.710938 22.875 -34.546875 Z M 19.171875 -19.65625 "/></g></g></g><g fill="#c63d2f" fill-opacity="0.4"><g transform="translate(265.064737, 215.659059)"><g><path d="M 7.96875 0.65625 C 5.976562 0.65625 4.390625 0.0507812 3.203125 -1.15625 C 2.023438 -2.363281 1.4375 -3.910156 1.4375 -5.796875 C 1.4375 -8.316406 2.242188 -10.394531 3.859375 -12.03125 C 5.472656 -13.664062 7.457031 -14.484375 9.8125 -14.484375 C 11.75 -14.484375 13.304688 -13.894531 14.484375 -12.71875 C 15.671875 -11.539062 16.265625 -10.007812 16.265625 -8.125 C 16.265625 -5.65625 15.457031 -3.570312 13.84375 -1.875 C 12.226562 -0.1875 10.269531 0.65625 7.96875 0.65625 Z M 7.96875 0.65625 "/></g></g></g><g fill="#952323" fill-opacity="1"><g transform="translate(94.242186, 212.099751)"><g><path d="M 1.609375 0 C 1.285156 0 1.03125 -0.101562 0.84375 -0.3125 C 0.65625 -0.53125 0.585938 -0.828125 0.640625 -1.203125 L 7.25 -55.15625 C 7.300781 -55.539062 7.445312 -55.835938 7.6875 -56.046875 C 7.925781 -56.265625 8.207031 -56.375 8.53125 -56.375 L 20.9375 -56.375 C 21.257812 -56.375 21.515625 -56.265625 21.703125 -56.046875 C 21.890625 -55.835938 21.957031 -55.539062 21.90625 -55.15625 L 16.828125 -13.375 C 16.722656 -13.101562 16.832031 -12.96875 17.15625 -12.96875 L 32.453125 -12.96875 C 32.828125 -12.96875 33.109375 -12.859375 33.296875 -12.640625 C 33.484375 -12.429688 33.550781 -12.132812 33.5 -11.75 L 32.21875 -1.203125 C 32.050781 -0.398438 31.59375 0 30.84375 0 Z M 1.609375 0 "/></g></g></g><g fill="#952323" fill-opacity="1"><g transform="translate(129.112183, 212.099751)"><g><path d="M 37.203125 -44.609375 C 37.148438 -44.234375 37.003906 -43.9375 36.765625 -43.71875 C 36.523438 -43.507812 36.21875 -43.40625 35.84375 -43.40625 L 20.859375 -43.40625 C 20.585938 -43.40625 20.453125 -43.269531 20.453125 -43 L 19.484375 -35.109375 C 19.378906 -34.835938 19.488281 -34.703125 19.8125 -34.703125 L 27.625 -34.703125 C 28 -34.703125 28.28125 -34.59375 28.46875 -34.375 C 28.65625 -34.164062 28.722656 -33.875 28.671875 -33.5 L 27.375 -22.953125 C 27.21875 -22.148438 26.765625 -21.75 26.015625 -21.75 L 18.203125 -21.75 C 17.929688 -21.75 17.796875 -21.613281 17.796875 -21.34375 L 16.828125 -13.375 C 16.722656 -13.101562 16.832031 -12.96875 17.15625 -12.96875 L 32.125 -12.96875 C 32.507812 -12.96875 32.796875 -12.859375 32.984375 -12.640625 C 33.171875 -12.429688 33.234375 -12.132812 33.171875 -11.75 L 31.890625 -1.203125 C 31.835938 -0.828125 31.6875 -0.53125 31.4375 -0.3125 C 31.195312 -0.101562 30.890625 0 30.515625 0 L 1.609375 0 C 1.285156 0 1.03125 -0.101562 0.84375 -0.3125 C 0.65625 -0.53125 0.585938 -0.828125 0.640625 -1.203125 L 7.25 -55.15625 C 7.300781 -55.539062 7.445312 -55.835938 7.6875 -56.046875 C 7.925781 -56.265625 8.207031 -56.375 8.53125 -56.375 L 37.453125 -56.375 C 37.828125 -56.375 38.109375 -56.265625 38.296875 -56.046875 C 38.484375 -55.835938 38.550781 -55.539062 38.5 -55.15625 Z M 37.203125 -44.609375 "/></g></g></g><g fill="#952323" fill-opacity="1"><g transform="translate(163.821115, 212.099751)"><g><path d="M 11.59375 0 C 10.84375 0 10.441406 -0.347656 10.390625 -1.046875 L 6.359375 -55.078125 C 6.359375 -55.941406 6.789062 -56.375 7.65625 -56.375 L 20.375 -56.375 C 21.125 -56.375 21.5 -56 21.5 -55.25 L 21.09375 -30.28125 C 21.039062 -30.113281 21.09375 -30.03125 21.25 -30.03125 C 21.414062 -30.03125 21.5 -30.113281 21.5 -30.28125 L 27.46875 -55.25 C 27.625 -56 28.101562 -56.375 28.90625 -56.375 L 38.40625 -56.375 C 39.164062 -56.375 39.546875 -56 39.546875 -55.25 L 39.78125 -30.28125 C 39.78125 -30.175781 39.847656 -30.109375 39.984375 -30.078125 C 40.117188 -30.046875 40.1875 -30.113281 40.1875 -30.28125 L 45.578125 -55.25 C 45.796875 -56 46.253906 -56.375 46.953125 -56.375 L 59.359375 -56.375 C 60.265625 -56.375 60.554688 -55.941406 60.234375 -55.078125 L 43.640625 -1.046875 C 43.429688 -0.347656 42.953125 0 42.203125 0 L 31.40625 0 C 30.65625 0 30.28125 -0.375 30.28125 -1.125 L 30.125 -27.375 C 30.175781 -27.539062 30.132812 -27.609375 30 -27.578125 C 29.863281 -27.554688 29.769531 -27.460938 29.71875 -27.296875 L 23.84375 -1.125 C 23.625 -0.375 23.140625 0 22.390625 0 Z M 11.59375 0 "/></g></g></g><g fill="#952323" fill-opacity="1"><g transform="translate(220.03187, 212.099751)"><g><path d="M 25.046875 0 C 24.296875 0 23.945312 -0.375 24 -1.125 L 23.84375 -7.25 C 23.894531 -7.351562 23.863281 -7.445312 23.75 -7.53125 C 23.644531 -7.613281 23.539062 -7.65625 23.4375 -7.65625 L 16.421875 -7.65625 C 16.160156 -7.65625 15.972656 -7.519531 15.859375 -7.25 L 14.328125 -1.125 C 14.171875 -0.375 13.71875 0 12.96875 0 L 0.71875 0 C -0.0820312 0 -0.375 -0.425781 -0.15625 -1.28125 L 17.5625 -55.328125 C 17.769531 -56.023438 18.25 -56.375 19 -56.375 L 33.265625 -56.375 C 34.015625 -56.375 34.414062 -56.023438 34.46875 -55.328125 L 38.890625 -1.28125 L 38.890625 -1.125 C 38.890625 -0.375 38.488281 0 37.6875 0 Z M 19.171875 -19.65625 C 19.054688 -19.382812 19.132812 -19.25 19.40625 -19.25 L 23.1875 -19.25 C 23.351562 -19.25 23.488281 -19.382812 23.59375 -19.65625 L 23.28125 -34.546875 C 23.28125 -34.765625 23.210938 -34.859375 23.078125 -34.828125 C 22.941406 -34.804688 22.875 -34.710938 22.875 -34.546875 Z M 19.171875 -19.65625 "/></g></g></g><g fill="#952323" fill-opacity="1"><g transform="translate(261.505427, 212.099751)"><g><path d="M 7.96875 0.65625 C 5.976562 0.65625 4.390625 0.0507812 3.203125 -1.15625 C 2.023438 -2.363281 1.4375 -3.910156 1.4375 -5.796875 C 1.4375 -8.316406 2.242188 -10.394531 3.859375 -12.03125 C 5.472656 -13.664062 7.457031 -14.484375 9.8125 -14.484375 C 11.75 -14.484375 13.304688 -13.894531 14.484375 -12.71875 C 15.671875 -11.539062 16.265625 -10.007812 16.265625 -8.125 C 16.265625 -5.65625 15.457031 -3.570312 13.84375 -1.875 C 12.226562 -0.1875 10.269531 0.65625 7.96875 0.65625 Z M 7.96875 0.65625 "/></g></g></g><g fill="#c63d2f" fill-opacity="0.4"><g transform="translate(95.375715, 239.659057)"><g><path d="M 0.59375 0 C 0.46875 0 0.367188 -0.0351562 0.296875 -0.109375 C 0.234375 -0.191406 0.210938 -0.300781 0.234375 -0.4375 L 2.65625 -20.234375 C 2.675781 -20.367188 2.726562 -20.472656 2.8125 -20.546875 C 2.90625 -20.628906 3.007812 -20.671875 3.125 -20.671875 L 8.765625 -20.671875 C 10.523438 -20.671875 11.921875 -20.210938 12.953125 -19.296875 C 13.984375 -18.378906 14.5 -17.15625 14.5 -15.625 C 14.5 -15.445312 14.476562 -15.160156 14.4375 -14.765625 L 13.34375 -5.90625 C 13.207031 -4.738281 12.816406 -3.707031 12.171875 -2.8125 C 11.535156 -1.914062 10.703125 -1.222656 9.671875 -0.734375 C 8.640625 -0.242188 7.492188 0 6.234375 0 Z M 6.171875 -4.90625 C 6.128906 -4.800781 6.171875 -4.75 6.296875 -4.75 L 6.703125 -4.78125 C 7.015625 -4.800781 7.296875 -4.945312 7.546875 -5.21875 C 7.796875 -5.5 7.957031 -5.859375 8.03125 -6.296875 L 9 -14.40625 L 9.03125 -14.734375 C 9.03125 -15.109375 8.941406 -15.398438 8.765625 -15.609375 C 8.585938 -15.816406 8.351562 -15.921875 8.0625 -15.921875 L 7.65625 -15.921875 C 7.550781 -15.921875 7.5 -15.867188 7.5 -15.765625 Z M 6.171875 -4.90625 "/></g></g></g><g fill="#c63d2f" fill-opacity="0.4"><g transform="translate(109.225892, 239.659057)"><g><path d="M 8 0 C 7.769531 0 7.632812 -0.128906 7.59375 -0.390625 L 6.734375 -7.828125 C 6.734375 -7.898438 6.703125 -7.9375 6.640625 -7.9375 C 6.566406 -7.9375 6.53125 -7.890625 6.53125 -7.796875 L 5.609375 -0.4375 C 5.585938 -0.300781 5.53125 -0.191406 5.4375 -0.109375 C 5.351562 -0.0351562 5.253906 0 5.140625 0 L 0.59375 0 C 0.46875 0 0.367188 -0.0351562 0.296875 -0.109375 C 0.234375 -0.191406 0.210938 -0.300781 0.234375 -0.4375 L 2.65625 -20.234375 C 2.675781 -20.367188 2.726562 -20.472656 2.8125 -20.546875 C 2.90625 -20.628906 3.007812 -20.671875 3.125 -20.671875 L 9.59375 -20.671875 C 11.164062 -20.671875 12.410156 -20.164062 13.328125 -19.15625 C 14.242188 -18.15625 14.703125 -16.828125 14.703125 -15.171875 C 14.703125 -14.703125 14.679688 -14.34375 14.640625 -14.09375 C 14.503906 -13.007812 14.195312 -12.035156 13.71875 -11.171875 C 13.25 -10.316406 12.644531 -9.625 11.90625 -9.09375 C 11.800781 -9.03125 11.769531 -8.960938 11.8125 -8.890625 L 13.078125 -0.5 L 13.078125 -0.390625 C 13.078125 -0.265625 13.035156 -0.164062 12.953125 -0.09375 C 12.878906 -0.03125 12.785156 0 12.671875 0 Z M 7.65625 -15.921875 C 7.550781 -15.921875 7.5 -15.867188 7.5 -15.765625 L 7.0625 -12.3125 C 7.0625 -12.21875 7.109375 -12.171875 7.203125 -12.171875 L 7.59375 -12.171875 C 8.0625 -12.171875 8.457031 -12.375 8.78125 -12.78125 C 9.101562 -13.195312 9.265625 -13.769531 9.265625 -14.5 C 9.265625 -14.945312 9.15625 -15.296875 8.9375 -15.546875 C 8.726562 -15.796875 8.4375 -15.921875 8.0625 -15.921875 Z M 7.65625 -15.921875 "/></g></g></g><g fill="#c63d2f" fill-opacity="0.4"><g transform="translate(123.253258, 239.659057)"><g><path d="M 0.59375 0 C 0.46875 0 0.367188 -0.0351562 0.296875 -0.109375 C 0.234375 -0.191406 0.210938 -0.300781 0.234375 -0.4375 L 2.65625 -20.234375 C 2.675781 -20.367188 2.726562 -20.472656 2.8125 -20.546875 C 2.90625 -20.628906 3.007812 -20.671875 3.125 -20.671875 L 7.671875 -20.671875 C 7.796875 -20.671875 7.890625 -20.628906 7.953125 -20.546875 C 8.023438 -20.472656 8.050781 -20.367188 8.03125 -20.234375 L 5.609375 -0.4375 C 5.585938 -0.300781 5.53125 -0.191406 5.4375 -0.109375 C 5.351562 -0.0351562 5.253906 0 5.140625 0 Z M 0.59375 0 "/></g></g></g><g fill="#c63d2f" fill-opacity="0.4"><g transform="translate(130.134052, 239.659057)"><g><path d="M 10.953125 -20.234375 C 10.972656 -20.367188 11.023438 -20.472656 11.109375 -20.546875 C 11.203125 -20.628906 11.316406 -20.671875 11.453125 -20.671875 L 15.921875 -20.671875 C 16.054688 -20.671875 16.15625 -20.628906 16.21875 -20.546875 C 16.289062 -20.472656 16.316406 -20.367188 16.296875 -20.234375 L 13.84375 -0.4375 C 13.832031 -0.300781 13.785156 -0.191406 13.703125 -0.109375 C 13.617188 -0.0351562 13.507812 0 13.375 0 L 8.265625 0 C 8.035156 0 7.898438 -0.128906 7.859375 -0.390625 L 6.734375 -9.453125 C 6.734375 -9.503906 6.710938 -9.53125 6.671875 -9.53125 C 6.628906 -9.53125 6.609375 -9.503906 6.609375 -9.453125 L 5.546875 -0.4375 C 5.523438 -0.300781 5.46875 -0.191406 5.375 -0.109375 C 5.289062 -0.0351562 5.191406 0 5.078125 0 L 0.59375 0 C 0.46875 0 0.367188 -0.0351562 0.296875 -0.109375 C 0.234375 -0.191406 0.210938 -0.300781 0.234375 -0.4375 L 2.65625 -20.234375 C 2.675781 -20.367188 2.726562 -20.472656 2.8125 -20.546875 C 2.90625 -20.628906 3.007812 -20.671875 3.125 -20.671875 L 8.1875 -20.671875 C 8.414062 -20.671875 8.550781 -20.539062 8.59375 -20.28125 L 9.75 -11.15625 C 9.75 -11.101562 9.765625 -11.085938 9.796875 -11.109375 C 9.835938 -11.128906 9.867188 -11.15625 9.890625 -11.1875 Z M 10.953125 -20.234375 "/></g></g></g><g fill="#c63d2f" fill-opacity="0.4"><g transform="translate(145.254077, 239.659057)"><g><path d="M 0.59375 0 C 0.46875 0 0.367188 -0.0351562 0.296875 -0.109375 C 0.234375 -0.191406 0.210938 -0.300781 0.234375 -0.4375 L 2.65625 -20.234375 C 2.675781 -20.367188 2.726562 -20.472656 2.8125 -20.546875 C 2.90625 -20.628906 3.007812 -20.671875 3.125 -20.671875 L 7.671875 -20.671875 C 7.796875 -20.671875 7.890625 -20.628906 7.953125 -20.546875 C 8.023438 -20.472656 8.050781 -20.367188 8.03125 -20.234375 L 7.328125 -14.296875 C 7.304688 -14.210938 7.3125 -14.171875 7.34375 -14.171875 C 7.382812 -14.171875 7.425781 -14.203125 7.46875 -14.265625 L 10.65625 -20.3125 C 10.78125 -20.550781 10.96875 -20.671875 11.21875 -20.671875 L 15.953125 -20.671875 C 16.179688 -20.671875 16.296875 -20.582031 16.296875 -20.40625 C 16.296875 -20.320312 16.269531 -20.234375 16.21875 -20.140625 L 11.109375 -11.40625 C 11.085938 -11.320312 11.078125 -11.257812 11.078125 -11.21875 L 13.9375 -0.5 L 13.9375 -0.390625 C 13.9375 -0.128906 13.800781 0 13.53125 0 L 8.765625 0 C 8.515625 0 8.359375 -0.117188 8.296875 -0.359375 L 6.796875 -6.4375 C 6.796875 -6.5 6.773438 -6.535156 6.734375 -6.546875 C 6.691406 -6.554688 6.660156 -6.519531 6.640625 -6.4375 L 6.296875 -5.78125 L 6.265625 -5.609375 L 5.609375 -0.4375 C 5.585938 -0.300781 5.53125 -0.191406 5.4375 -0.109375 C 5.351562 -0.0351562 5.253906 0 5.140625 0 Z M 0.59375 0 "/></g></g></g><g fill="#c63d2f" fill-opacity="0.4"><g transform="translate(160.04926, 239.659057)"><g><path d="M 6.140625 0.234375 C 4.453125 0.234375 3.113281 -0.203125 2.125 -1.078125 C 1.144531 -1.953125 0.65625 -3.117188 0.65625 -4.578125 C 0.65625 -4.710938 0.671875 -4.957031 0.703125 -5.3125 L 0.828125 -6.234375 C 0.847656 -6.367188 0.898438 -6.472656 0.984375 -6.546875 C 1.078125 -6.628906 1.179688 -6.671875 1.296875 -6.671875 L 5.78125 -6.671875 C 5.90625 -6.671875 6 -6.628906 6.0625 -6.546875 C 6.132812 -6.472656 6.160156 -6.367188 6.140625 -6.234375 L 6.078125 -5.578125 C 6.046875 -5.265625 6.085938 -5.007812 6.203125 -4.8125 C 6.316406 -4.613281 6.492188 -4.515625 6.734375 -4.515625 C 6.984375 -4.515625 7.195312 -4.625 7.375 -4.84375 C 7.5625 -5.0625 7.65625 -5.328125 7.65625 -5.640625 C 7.65625 -5.929688 7.507812 -6.234375 7.21875 -6.546875 C 6.9375 -6.867188 6.390625 -7.351562 5.578125 -8 C 4.796875 -8.65625 4.144531 -9.234375 3.625 -9.734375 C 3.113281 -10.234375 2.671875 -10.851562 2.296875 -11.59375 C 1.929688 -12.332031 1.75 -13.171875 1.75 -14.109375 C 1.75 -14.285156 1.765625 -14.59375 1.796875 -15.03125 C 2.015625 -16.78125 2.742188 -18.195312 3.984375 -19.28125 C 5.222656 -20.363281 6.769531 -20.90625 8.625 -20.90625 C 10.3125 -20.90625 11.644531 -20.453125 12.625 -19.546875 C 13.601562 -18.640625 14.09375 -17.421875 14.09375 -15.890625 C 14.09375 -15.710938 14.070312 -15.425781 14.03125 -15.03125 L 13.9375 -14.375 C 13.914062 -14.238281 13.859375 -14.128906 13.765625 -14.046875 C 13.679688 -13.972656 13.582031 -13.9375 13.46875 -13.9375 L 9 -13.9375 C 8.882812 -13.9375 8.789062 -13.972656 8.71875 -14.046875 C 8.65625 -14.128906 8.632812 -14.238281 8.65625 -14.375 L 8.734375 -15.15625 C 8.753906 -15.445312 8.703125 -15.6875 8.578125 -15.875 C 8.453125 -16.0625 8.269531 -16.15625 8.03125 -16.15625 C 7.757812 -16.15625 7.535156 -16.035156 7.359375 -15.796875 C 7.179688 -15.554688 7.09375 -15.242188 7.09375 -14.859375 C 7.09375 -14.523438 7.226562 -14.175781 7.5 -13.8125 C 7.78125 -13.457031 8.289062 -12.96875 9.03125 -12.34375 C 10.039062 -11.5 10.8125 -10.816406 11.34375 -10.296875 C 11.875 -9.773438 12.289062 -9.203125 12.59375 -8.578125 C 12.894531 -7.960938 13.046875 -7.257812 13.046875 -6.46875 C 13.046875 -6.3125 13.03125 -6.035156 13 -5.640625 C 12.757812 -3.847656 12.015625 -2.421875 10.765625 -1.359375 C 9.515625 -0.296875 7.972656 0.234375 6.140625 0.234375 Z M 6.140625 0.234375 "/></g></g></g><g fill="#c63d2f" fill-opacity="0.4"><g transform="translate(173.308808, 239.659057)"><g/></g></g><g fill="#c63d2f" fill-opacity="0.4"><g transform="translate(179.03788, 239.659057)"><g><path d="M 17.0625 -0.53125 C 17.125 -0.445312 17.15625 -0.367188 17.15625 -0.296875 C 17.15625 -0.210938 17.113281 -0.140625 17.03125 -0.078125 C 16.957031 -0.0234375 16.863281 0 16.75 0 L 11.875 0 C 11.65625 0 11.488281 -0.0859375 11.375 -0.265625 L 11.015625 -0.765625 C 10.972656 -0.828125 10.90625 -0.835938 10.8125 -0.796875 C 9.332031 -0.0664062 7.726562 0.296875 6 0.296875 C 4.28125 0.296875 2.9375 -0.0859375 1.96875 -0.859375 C 1.007812 -1.628906 0.53125 -2.757812 0.53125 -4.25 C 0.53125 -4.445312 0.550781 -4.765625 0.59375 -5.203125 C 0.75 -6.421875 1.113281 -7.457031 1.6875 -8.3125 C 2.269531 -9.164062 3.023438 -9.921875 3.953125 -10.578125 C 4.054688 -10.628906 4.078125 -10.695312 4.015625 -10.78125 C 3.484375 -11.601562 3.117188 -12.273438 2.921875 -12.796875 C 2.722656 -13.316406 2.625 -13.828125 2.625 -14.328125 C 2.625 -14.484375 2.644531 -14.738281 2.6875 -15.09375 C 2.882812 -16.820312 3.601562 -18.222656 4.84375 -19.296875 C 6.082031 -20.367188 7.609375 -20.90625 9.421875 -20.90625 C 11.128906 -20.90625 12.503906 -20.429688 13.546875 -19.484375 C 14.597656 -18.546875 15.125 -17.296875 15.125 -15.734375 C 15.125 -14.296875 14.773438 -13.085938 14.078125 -12.109375 C 13.390625 -11.140625 12.457031 -10.253906 11.28125 -9.453125 C 11.195312 -9.390625 11.164062 -9.328125 11.1875 -9.265625 L 11.28125 -9.1875 L 12.140625 -7.859375 C 12.210938 -7.796875 12.28125 -7.796875 12.34375 -7.859375 C 13.070312 -8.679688 13.582031 -9.367188 13.875 -9.921875 C 13.957031 -10.117188 14.078125 -10.21875 14.234375 -10.21875 C 14.296875 -10.21875 14.375 -10.1875 14.46875 -10.125 L 17.578125 -8.1875 C 17.710938 -8.082031 17.78125 -7.972656 17.78125 -7.859375 C 17.78125 -7.773438 17.75 -7.6875 17.6875 -7.59375 C 16.882812 -6.269531 15.976562 -5.046875 14.96875 -3.921875 C 14.925781 -3.890625 14.914062 -3.820312 14.9375 -3.71875 Z M 8.984375 -15.890625 C 8.679688 -15.890625 8.441406 -15.757812 8.265625 -15.5 C 8.085938 -15.25 8 -14.945312 8 -14.59375 C 8 -14.4375 8.03125 -14.269531 8.09375 -14.09375 C 8.164062 -13.925781 8.289062 -13.6875 8.46875 -13.375 C 8.53125 -13.300781 8.601562 -13.289062 8.6875 -13.34375 C 9.351562 -13.914062 9.6875 -14.46875 9.6875 -15 C 9.6875 -15.28125 9.617188 -15.5 9.484375 -15.65625 C 9.359375 -15.8125 9.191406 -15.890625 8.984375 -15.890625 Z M 7.4375 -4.421875 C 7.582031 -4.441406 7.789062 -4.492188 8.0625 -4.578125 C 8.195312 -4.617188 8.226562 -4.6875 8.15625 -4.78125 L 7.96875 -5.015625 C 7.539062 -5.648438 7.148438 -6.191406 6.796875 -6.640625 C 6.773438 -6.742188 6.710938 -6.742188 6.609375 -6.640625 C 6.234375 -6.304688 6.046875 -5.941406 6.046875 -5.546875 C 6.046875 -5.253906 6.132812 -4.988281 6.3125 -4.75 C 6.488281 -4.519531 6.773438 -4.40625 7.171875 -4.40625 Z M 7.4375 -4.421875 "/></g></g></g><g fill="#c63d2f" fill-opacity="0.4"><g transform="translate(197.465408, 239.659057)"><g/></g></g><g fill="#c63d2f" fill-opacity="0.4"><g transform="translate(203.19448, 239.659057)"><g><path d="M 13.640625 -16.359375 C 13.617188 -16.222656 13.5625 -16.113281 13.46875 -16.03125 C 13.382812 -15.957031 13.273438 -15.921875 13.140625 -15.921875 L 7.65625 -15.921875 C 7.550781 -15.921875 7.5 -15.867188 7.5 -15.765625 L 7.140625 -12.875 C 7.109375 -12.78125 7.148438 -12.734375 7.265625 -12.734375 L 10.125 -12.734375 C 10.257812 -12.734375 10.363281 -12.691406 10.4375 -12.609375 C 10.507812 -12.523438 10.535156 -12.414062 10.515625 -12.28125 L 10.046875 -8.421875 C 9.984375 -8.117188 9.8125 -7.96875 9.53125 -7.96875 L 6.671875 -7.96875 C 6.578125 -7.96875 6.53125 -7.921875 6.53125 -7.828125 L 6.171875 -4.90625 C 6.128906 -4.800781 6.171875 -4.75 6.296875 -4.75 L 11.78125 -4.75 C 11.914062 -4.75 12.019531 -4.707031 12.09375 -4.625 C 12.164062 -4.550781 12.191406 -4.445312 12.171875 -4.3125 L 11.6875 -0.4375 C 11.675781 -0.300781 11.625 -0.191406 11.53125 -0.109375 C 11.445312 -0.0351562 11.332031 0 11.1875 0 L 0.59375 0 C 0.46875 0 0.367188 -0.0351562 0.296875 -0.109375 C 0.234375 -0.191406 0.210938 -0.300781 0.234375 -0.4375 L 2.65625 -20.234375 C 2.675781 -20.367188 2.726562 -20.472656 2.8125 -20.546875 C 2.90625 -20.628906 3.007812 -20.671875 3.125 -20.671875 L 13.734375 -20.671875 C 13.867188 -20.671875 13.96875 -20.628906 14.03125 -20.546875 C 14.101562 -20.472656 14.128906 -20.367188 14.109375 -20.234375 Z M 13.640625 -16.359375 "/></g></g></g><g fill="#c63d2f" fill-opacity="0.4"><g transform="translate(215.922472, 239.659057)"><g><path d="M 9.1875 0 C 8.90625 0 8.773438 -0.132812 8.796875 -0.40625 L 8.734375 -2.65625 C 8.753906 -2.695312 8.742188 -2.734375 8.703125 -2.765625 C 8.671875 -2.796875 8.632812 -2.8125 8.59375 -2.8125 L 6.03125 -2.8125 C 5.925781 -2.8125 5.851562 -2.757812 5.8125 -2.65625 L 5.25 -0.40625 C 5.195312 -0.132812 5.03125 0 4.75 0 L 0.265625 0 C -0.0234375 0 -0.132812 -0.15625 -0.0625 -0.46875 L 6.4375 -20.28125 C 6.519531 -20.539062 6.695312 -20.671875 6.96875 -20.671875 L 12.203125 -20.671875 C 12.472656 -20.671875 12.617188 -20.539062 12.640625 -20.28125 L 14.265625 -0.46875 L 14.265625 -0.40625 C 14.265625 -0.132812 14.117188 0 13.828125 0 Z M 7.03125 -7.203125 C 6.988281 -7.109375 7.015625 -7.0625 7.109375 -7.0625 L 8.5 -7.0625 C 8.5625 -7.0625 8.613281 -7.109375 8.65625 -7.203125 L 8.53125 -12.671875 C 8.53125 -12.742188 8.503906 -12.773438 8.453125 -12.765625 C 8.410156 -12.753906 8.390625 -12.722656 8.390625 -12.671875 Z M 7.03125 -7.203125 "/></g></g></g><g fill="#c63d2f" fill-opacity="0.4"><g transform="translate(231.131085, 239.659057)"><g><path d="M 15.328125 -20.671875 C 15.441406 -20.671875 15.53125 -20.628906 15.59375 -20.546875 C 15.664062 -20.472656 15.695312 -20.367188 15.6875 -20.234375 L 15.203125 -16.359375 C 15.179688 -16.222656 15.128906 -16.113281 15.046875 -16.03125 C 14.972656 -15.957031 14.867188 -15.921875 14.734375 -15.921875 L 11.3125 -15.921875 C 11.207031 -15.921875 11.15625 -15.867188 11.15625 -15.765625 L 9.265625 -0.4375 C 9.253906 -0.300781 9.207031 -0.191406 9.125 -0.109375 C 9.039062 -0.0351562 8.929688 0 8.796875 0 L 4.28125 0 C 4.144531 0 4.039062 -0.0351562 3.96875 -0.109375 C 3.90625 -0.191406 3.878906 -0.300781 3.890625 -0.4375 L 5.78125 -15.765625 C 5.78125 -15.867188 5.734375 -15.921875 5.640625 -15.921875 L 2.328125 -15.921875 C 2.191406 -15.921875 2.085938 -15.957031 2.015625 -16.03125 C 1.953125 -16.113281 1.929688 -16.222656 1.953125 -16.359375 L 2.421875 -20.234375 C 2.441406 -20.367188 2.492188 -20.472656 2.578125 -20.546875 C 2.671875 -20.628906 2.785156 -20.671875 2.921875 -20.671875 Z M 15.328125 -20.671875 "/></g></g></g><g fill="#c63d2f" fill-opacity="0.4"><g transform="translate(245.424228, 239.659057)"><g><path d="M 13.640625 -16.359375 C 13.617188 -16.222656 13.5625 -16.113281 13.46875 -16.03125 C 13.382812 -15.957031 13.273438 -15.921875 13.140625 -15.921875 L 7.65625 -15.921875 C 7.550781 -15.921875 7.5 -15.867188 7.5 -15.765625 L 7.140625 -12.875 C 7.109375 -12.78125 7.148438 -12.734375 7.265625 -12.734375 L 10.125 -12.734375 C 10.257812 -12.734375 10.363281 -12.691406 10.4375 -12.609375 C 10.507812 -12.523438 10.535156 -12.414062 10.515625 -12.28125 L 10.046875 -8.421875 C 9.984375 -8.117188 9.8125 -7.96875 9.53125 -7.96875 L 6.671875 -7.96875 C 6.578125 -7.96875 6.53125 -7.921875 6.53125 -7.828125 L 6.171875 -4.90625 C 6.128906 -4.800781 6.171875 -4.75 6.296875 -4.75 L 11.78125 -4.75 C 11.914062 -4.75 12.019531 -4.707031 12.09375 -4.625 C 12.164062 -4.550781 12.191406 -4.445312 12.171875 -4.3125 L 11.6875 -0.4375 C 11.675781 -0.300781 11.625 -0.191406 11.53125 -0.109375 C 11.445312 -0.0351562 11.332031 0 11.1875 0 L 0.59375 0 C 0.46875 0 0.367188 -0.0351562 0.296875 -0.109375 C 0.234375 -0.191406 0.210938 -0.300781 0.234375 -0.4375 L 2.65625 -20.234375 C 2.675781 -20.367188 2.726562 -20.472656 2.8125 -20.546875 C 2.90625 -20.628906 3.007812 -20.671875 3.125 -20.671875 L 13.734375 -20.671875 C 13.867188 -20.671875 13.96875 -20.628906 14.03125 -20.546875 C 14.101562 -20.472656 14.128906 -20.367188 14.109375 -20.234375 Z M 13.640625 -16.359375 "/></g></g></g><g fill="#c63d2f" fill-opacity="0.4"><g transform="translate(258.15222, 239.659057)"><g><path d="M 8 0 C 7.769531 0 7.632812 -0.128906 7.59375 -0.390625 L 6.734375 -7.828125 C 6.734375 -7.898438 6.703125 -7.9375 6.640625 -7.9375 C 6.566406 -7.9375 6.53125 -7.890625 6.53125 -7.796875 L 5.609375 -0.4375 C 5.585938 -0.300781 5.53125 -0.191406 5.4375 -0.109375 C 5.351562 -0.0351562 5.253906 0 5.140625 0 L 0.59375 0 C 0.46875 0 0.367188 -0.0351562 0.296875 -0.109375 C 0.234375 -0.191406 0.210938 -0.300781 0.234375 -0.4375 L 2.65625 -20.234375 C 2.675781 -20.367188 2.726562 -20.472656 2.8125 -20.546875 C 2.90625 -20.628906 3.007812 -20.671875 3.125 -20.671875 L 9.59375 -20.671875 C 11.164062 -20.671875 12.410156 -20.164062 13.328125 -19.15625 C 14.242188 -18.15625 14.703125 -16.828125 14.703125 -15.171875 C 14.703125 -14.703125 14.679688 -14.34375 14.640625 -14.09375 C 14.503906 -13.007812 14.195312 -12.035156 13.71875 -11.171875 C 13.25 -10.316406 12.644531 -9.625 11.90625 -9.09375 C 11.800781 -9.03125 11.769531 -8.960938 11.8125 -8.890625 L 13.078125 -0.5 L 13.078125 -0.390625 C 13.078125 -0.265625 13.035156 -0.164062 12.953125 -0.09375 C 12.878906 -0.03125 12.785156 0 12.671875 0 Z M 7.65625 -15.921875 C 7.550781 -15.921875 7.5 -15.867188 7.5 -15.765625 L 7.0625 -12.3125 C 7.0625 -12.21875 7.109375 -12.171875 7.203125 -12.171875 L 7.59375 -12.171875 C 8.0625 -12.171875 8.457031 -12.375 8.78125 -12.78125 C 9.101562 -13.195312 9.265625 -13.769531 9.265625 -14.5 C 9.265625 -14.945312 9.15625 -15.296875 8.9375 -15.546875 C 8.726562 -15.796875 8.4375 -15.921875 8.0625 -15.921875 Z M 7.65625 -15.921875 "/></g></g></g><g fill="#c63d2f" fill-opacity="0.4"><g transform="translate(272.179586, 239.659057)"><g><path d="M 4.421875 -0.0625 C 4.285156 -0.0625 4.179688 -0.0976562 4.109375 -0.171875 C 4.046875 -0.253906 4.023438 -0.363281 4.046875 -0.5 L 4.875 -7.328125 C 4.894531 -7.359375 4.894531 -7.414062 4.875 -7.5 L 2.421875 -20.171875 L 2.421875 -20.28125 C 2.421875 -20.539062 2.554688 -20.671875 2.828125 -20.671875 L 7.59375 -20.671875 C 7.863281 -20.671875 8.007812 -20.539062 8.03125 -20.28125 L 8.390625 -14.359375 C 8.390625 -14.296875 8.410156 -14.265625 8.453125 -14.265625 C 8.503906 -14.265625 8.539062 -14.296875 8.5625 -14.359375 L 10.359375 -20.28125 C 10.441406 -20.539062 10.617188 -20.671875 10.890625 -20.671875 L 15.65625 -20.671875 C 15.8125 -20.671875 15.910156 -20.625 15.953125 -20.53125 C 16.003906 -20.445312 16.003906 -20.328125 15.953125 -20.171875 L 10.3125 -7.5 L 10.28125 -7.328125 L 9.421875 -0.5 C 9.398438 -0.363281 9.347656 -0.253906 9.265625 -0.171875 C 9.191406 -0.0976562 9.085938 -0.0625 8.953125 -0.0625 Z M 4.421875 -0.0625 "/></g></g></g><g fill="#a73121" fill-opacity="1"><g transform="translate(91.816405, 236.099749)"><g><path d="M 0.59375 0 C 0.46875 0 0.367188 -0.0351562 0.296875 -0.109375 C 0.234375 -0.191406 0.210938 -0.300781 0.234375 -0.4375 L 2.65625 -20.234375 C 2.675781 -20.367188 2.726562 -20.472656 2.8125 -20.546875 C 2.90625 -20.628906 3.007812 -20.671875 3.125 -20.671875 L 8.765625 -20.671875 C 10.523438 -20.671875 11.921875 -20.210938 12.953125 -19.296875 C 13.984375 -18.378906 14.5 -17.15625 14.5 -15.625 C 14.5 -15.445312 14.476562 -15.160156 14.4375 -14.765625 L 13.34375 -5.90625 C 13.207031 -4.738281 12.816406 -3.707031 12.171875 -2.8125 C 11.535156 -1.914062 10.703125 -1.222656 9.671875 -0.734375 C 8.640625 -0.242188 7.492188 0 6.234375 0 Z M 6.171875 -4.90625 C 6.128906 -4.800781 6.171875 -4.75 6.296875 -4.75 L 6.703125 -4.78125 C 7.015625 -4.800781 7.296875 -4.945312 7.546875 -5.21875 C 7.796875 -5.5 7.957031 -5.859375 8.03125 -6.296875 L 9 -14.40625 L 9.03125 -14.734375 C 9.03125 -15.109375 8.941406 -15.398438 8.765625 -15.609375 C 8.585938 -15.816406 8.351562 -15.921875 8.0625 -15.921875 L 7.65625 -15.921875 C 7.550781 -15.921875 7.5 -15.867188 7.5 -15.765625 Z M 6.171875 -4.90625 "/></g></g></g><g fill="#a73121" fill-opacity="1"><g transform="translate(105.666582, 236.099749)"><g><path d="M 8 0 C 7.769531 0 7.632812 -0.128906 7.59375 -0.390625 L 6.734375 -7.828125 C 6.734375 -7.898438 6.703125 -7.9375 6.640625 -7.9375 C 6.566406 -7.9375 6.53125 -7.890625 6.53125 -7.796875 L 5.609375 -0.4375 C 5.585938 -0.300781 5.53125 -0.191406 5.4375 -0.109375 C 5.351562 -0.0351562 5.253906 0 5.140625 0 L 0.59375 0 C 0.46875 0 0.367188 -0.0351562 0.296875 -0.109375 C 0.234375 -0.191406 0.210938 -0.300781 0.234375 -0.4375 L 2.65625 -20.234375 C 2.675781 -20.367188 2.726562 -20.472656 2.8125 -20.546875 C 2.90625 -20.628906 3.007812 -20.671875 3.125 -20.671875 L 9.59375 -20.671875 C 11.164062 -20.671875 12.410156 -20.164062 13.328125 -19.15625 C 14.242188 -18.15625 14.703125 -16.828125 14.703125 -15.171875 C 14.703125 -14.703125 14.679688 -14.34375 14.640625 -14.09375 C 14.503906 -13.007812 14.195312 -12.035156 13.71875 -11.171875 C 13.25 -10.316406 12.644531 -9.625 11.90625 -9.09375 C 11.800781 -9.03125 11.769531 -8.960938 11.8125 -8.890625 L 13.078125 -0.5 L 13.078125 -0.390625 C 13.078125 -0.265625 13.035156 -0.164062 12.953125 -0.09375 C 12.878906 -0.03125 12.785156 0 12.671875 0 Z M 7.65625 -15.921875 C 7.550781 -15.921875 7.5 -15.867188 7.5 -15.765625 L 7.0625 -12.3125 C 7.0625 -12.21875 7.109375 -12.171875 7.203125 -12.171875 L 7.59375 -12.171875 C 8.0625 -12.171875 8.457031 -12.375 8.78125 -12.78125 C 9.101562 -13.195312 9.265625 -13.769531 9.265625 -14.5 C 9.265625 -14.945312 9.15625 -15.296875 8.9375 -15.546875 C 8.726562 -15.796875 8.4375 -15.921875 8.0625 -15.921875 Z M 7.65625 -15.921875 "/></g></g></g><g fill="#a73121" fill-opacity="1"><g transform="translate(119.693948, 236.099749)"><g><path d="M 0.59375 0 C 0.46875 0 0.367188 -0.0351562 0.296875 -0.109375 C 0.234375 -0.191406 0.210938 -0.300781 0.234375 -0.4375 L 2.65625 -20.234375 C 2.675781 -20.367188 2.726562 -20.472656 2.8125 -20.546875 C 2.90625 -20.628906 3.007812 -20.671875 3.125 -20.671875 L 7.671875 -20.671875 C 7.796875 -20.671875 7.890625 -20.628906 7.953125 -20.546875 C 8.023438 -20.472656 8.050781 -20.367188 8.03125 -20.234375 L 5.609375 -0.4375 C 5.585938 -0.300781 5.53125 -0.191406 5.4375 -0.109375 C 5.351562 -0.0351562 5.253906 0 5.140625 0 Z M 0.59375 0 "/></g></g></g><g fill="#a73121" fill-opacity="1"><g transform="translate(126.574742, 236.099749)"><g><path d="M 10.953125 -20.234375 C 10.972656 -20.367188 11.023438 -20.472656 11.109375 -20.546875 C 11.203125 -20.628906 11.316406 -20.671875 11.453125 -20.671875 L 15.921875 -20.671875 C 16.054688 -20.671875 16.15625 -20.628906 16.21875 -20.546875 C 16.289062 -20.472656 16.316406 -20.367188 16.296875 -20.234375 L 13.84375 -0.4375 C 13.832031 -0.300781 13.785156 -0.191406 13.703125 -0.109375 C 13.617188 -0.0351562 13.507812 0 13.375 0 L 8.265625 0 C 8.035156 0 7.898438 -0.128906 7.859375 -0.390625 L 6.734375 -9.453125 C 6.734375 -9.503906 6.710938 -9.53125 6.671875 -9.53125 C 6.628906 -9.53125 6.609375 -9.503906 6.609375 -9.453125 L 5.546875 -0.4375 C 5.523438 -0.300781 5.46875 -0.191406 5.375 -0.109375 C 5.289062 -0.0351562 5.191406 0 5.078125 0 L 0.59375 0 C 0.46875 0 0.367188 -0.0351562 0.296875 -0.109375 C 0.234375 -0.191406 0.210938 -0.300781 0.234375 -0.4375 L 2.65625 -20.234375 C 2.675781 -20.367188 2.726562 -20.472656 2.8125 -20.546875 C 2.90625 -20.628906 3.007812 -20.671875 3.125 -20.671875 L 8.1875 -20.671875 C 8.414062 -20.671875 8.550781 -20.539062 8.59375 -20.28125 L 9.75 -11.15625 C 9.75 -11.101562 9.765625 -11.085938 9.796875 -11.109375 C 9.835938 -11.128906 9.867188 -11.15625 9.890625 -11.1875 Z M 10.953125 -20.234375 "/></g></g></g><g fill="#a73121" fill-opacity="1"><g transform="translate(141.694766, 236.099749)"><g><path d="M 0.59375 0 C 0.46875 0 0.367188 -0.0351562 0.296875 -0.109375 C 0.234375 -0.191406 0.210938 -0.300781 0.234375 -0.4375 L 2.65625 -20.234375 C 2.675781 -20.367188 2.726562 -20.472656 2.8125 -20.546875 C 2.90625 -20.628906 3.007812 -20.671875 3.125 -20.671875 L 7.671875 -20.671875 C 7.796875 -20.671875 7.890625 -20.628906 7.953125 -20.546875 C 8.023438 -20.472656 8.050781 -20.367188 8.03125 -20.234375 L 7.328125 -14.296875 C 7.304688 -14.210938 7.3125 -14.171875 7.34375 -14.171875 C 7.382812 -14.171875 7.425781 -14.203125 7.46875 -14.265625 L 10.65625 -20.3125 C 10.78125 -20.550781 10.96875 -20.671875 11.21875 -20.671875 L 15.953125 -20.671875 C 16.179688 -20.671875 16.296875 -20.582031 16.296875 -20.40625 C 16.296875 -20.320312 16.269531 -20.234375 16.21875 -20.140625 L 11.109375 -11.40625 C 11.085938 -11.320312 11.078125 -11.257812 11.078125 -11.21875 L 13.9375 -0.5 L 13.9375 -0.390625 C 13.9375 -0.128906 13.800781 0 13.53125 0 L 8.765625 0 C 8.515625 0 8.359375 -0.117188 8.296875 -0.359375 L 6.796875 -6.4375 C 6.796875 -6.5 6.773438 -6.535156 6.734375 -6.546875 C 6.691406 -6.554688 6.660156 -6.519531 6.640625 -6.4375 L 6.296875 -5.78125 L 6.265625 -5.609375 L 5.609375 -0.4375 C 5.585938 -0.300781 5.53125 -0.191406 5.4375 -0.109375 C 5.351562 -0.0351562 5.253906 0 5.140625 0 Z M 0.59375 0 "/></g></g></g><g fill="#a73121" fill-opacity="1"><g transform="translate(156.48995, 236.099749)"><g><path d="M 6.140625 0.234375 C 4.453125 0.234375 3.113281 -0.203125 2.125 -1.078125 C 1.144531 -1.953125 0.65625 -3.117188 0.65625 -4.578125 C 0.65625 -4.710938 0.671875 -4.957031 0.703125 -5.3125 L 0.828125 -6.234375 C 0.847656 -6.367188 0.898438 -6.472656 0.984375 -6.546875 C 1.078125 -6.628906 1.179688 -6.671875 1.296875 -6.671875 L 5.78125 -6.671875 C 5.90625 -6.671875 6 -6.628906 6.0625 -6.546875 C 6.132812 -6.472656 6.160156 -6.367188 6.140625 -6.234375 L 6.078125 -5.578125 C 6.046875 -5.265625 6.085938 -5.007812 6.203125 -4.8125 C 6.316406 -4.613281 6.492188 -4.515625 6.734375 -4.515625 C 6.984375 -4.515625 7.195312 -4.625 7.375 -4.84375 C 7.5625 -5.0625 7.65625 -5.328125 7.65625 -5.640625 C 7.65625 -5.929688 7.507812 -6.234375 7.21875 -6.546875 C 6.9375 -6.867188 6.390625 -7.351562 5.578125 -8 C 4.796875 -8.65625 4.144531 -9.234375 3.625 -9.734375 C 3.113281 -10.234375 2.671875 -10.851562 2.296875 -11.59375 C 1.929688 -12.332031 1.75 -13.171875 1.75 -14.109375 C 1.75 -14.285156 1.765625 -14.59375 1.796875 -15.03125 C 2.015625 -16.78125 2.742188 -18.195312 3.984375 -19.28125 C 5.222656 -20.363281 6.769531 -20.90625 8.625 -20.90625 C 10.3125 -20.90625 11.644531 -20.453125 12.625 -19.546875 C 13.601562 -18.640625 14.09375 -17.421875 14.09375 -15.890625 C 14.09375 -15.710938 14.070312 -15.425781 14.03125 -15.03125 L 13.9375 -14.375 C 13.914062 -14.238281 13.859375 -14.128906 13.765625 -14.046875 C 13.679688 -13.972656 13.582031 -13.9375 13.46875 -13.9375 L 9 -13.9375 C 8.882812 -13.9375 8.789062 -13.972656 8.71875 -14.046875 C 8.65625 -14.128906 8.632812 -14.238281 8.65625 -14.375 L 8.734375 -15.15625 C 8.753906 -15.445312 8.703125 -15.6875 8.578125 -15.875 C 8.453125 -16.0625 8.269531 -16.15625 8.03125 -16.15625 C 7.757812 -16.15625 7.535156 -16.035156 7.359375 -15.796875 C 7.179688 -15.554688 7.09375 -15.242188 7.09375 -14.859375 C 7.09375 -14.523438 7.226562 -14.175781 7.5 -13.8125 C 7.78125 -13.457031 8.289062 -12.96875 9.03125 -12.34375 C 10.039062 -11.5 10.8125 -10.816406 11.34375 -10.296875 C 11.875 -9.773438 12.289062 -9.203125 12.59375 -8.578125 C 12.894531 -7.960938 13.046875 -7.257812 13.046875 -6.46875 C 13.046875 -6.3125 13.03125 -6.035156 13 -5.640625 C 12.757812 -3.847656 12.015625 -2.421875 10.765625 -1.359375 C 9.515625 -0.296875 7.972656 0.234375 6.140625 0.234375 Z M 6.140625 0.234375 "/></g></g></g><g fill="#a73121" fill-opacity="1"><g transform="translate(169.749498, 236.099749)"><g/></g></g><g fill="#a73121" fill-opacity="1"><g transform="translate(175.47857, 236.099749)"><g><path d="M 17.0625 -0.53125 C 17.125 -0.445312 17.15625 -0.367188 17.15625 -0.296875 C 17.15625 -0.210938 17.113281 -0.140625 17.03125 -0.078125 C 16.957031 -0.0234375 16.863281 0 16.75 0 L 11.875 0 C 11.65625 0 11.488281 -0.0859375 11.375 -0.265625 L 11.015625 -0.765625 C 10.972656 -0.828125 10.90625 -0.835938 10.8125 -0.796875 C 9.332031 -0.0664062 7.726562 0.296875 6 0.296875 C 4.28125 0.296875 2.9375 -0.0859375 1.96875 -0.859375 C 1.007812 -1.628906 0.53125 -2.757812 0.53125 -4.25 C 0.53125 -4.445312 0.550781 -4.765625 0.59375 -5.203125 C 0.75 -6.421875 1.113281 -7.457031 1.6875 -8.3125 C 2.269531 -9.164062 3.023438 -9.921875 3.953125 -10.578125 C 4.054688 -10.628906 4.078125 -10.695312 4.015625 -10.78125 C 3.484375 -11.601562 3.117188 -12.273438 2.921875 -12.796875 C 2.722656 -13.316406 2.625 -13.828125 2.625 -14.328125 C 2.625 -14.484375 2.644531 -14.738281 2.6875 -15.09375 C 2.882812 -16.820312 3.601562 -18.222656 4.84375 -19.296875 C 6.082031 -20.367188 7.609375 -20.90625 9.421875 -20.90625 C 11.128906 -20.90625 12.503906 -20.429688 13.546875 -19.484375 C 14.597656 -18.546875 15.125 -17.296875 15.125 -15.734375 C 15.125 -14.296875 14.773438 -13.085938 14.078125 -12.109375 C 13.390625 -11.140625 12.457031 -10.253906 11.28125 -9.453125 C 11.195312 -9.390625 11.164062 -9.328125 11.1875 -9.265625 L 11.28125 -9.1875 L 12.140625 -7.859375 C 12.210938 -7.796875 12.28125 -7.796875 12.34375 -7.859375 C 13.070312 -8.679688 13.582031 -9.367188 13.875 -9.921875 C 13.957031 -10.117188 14.078125 -10.21875 14.234375 -10.21875 C 14.296875 -10.21875 14.375 -10.1875 14.46875 -10.125 L 17.578125 -8.1875 C 17.710938 -8.082031 17.78125 -7.972656 17.78125 -7.859375 C 17.78125 -7.773438 17.75 -7.6875 17.6875 -7.59375 C 16.882812 -6.269531 15.976562 -5.046875 14.96875 -3.921875 C 14.925781 -3.890625 14.914062 -3.820312 14.9375 -3.71875 Z M 8.984375 -15.890625 C 8.679688 -15.890625 8.441406 -15.757812 8.265625 -15.5 C 8.085938 -15.25 8 -14.945312 8 -14.59375 C 8 -14.4375 8.03125 -14.269531 8.09375 -14.09375 C 8.164062 -13.925781 8.289062 -13.6875 8.46875 -13.375 C 8.53125 -13.300781 8.601562 -13.289062 8.6875 -13.34375 C 9.351562 -13.914062 9.6875 -14.46875 9.6875 -15 C 9.6875 -15.28125 9.617188 -15.5 9.484375 -15.65625 C 9.359375 -15.8125 9.191406 -15.890625 8.984375 -15.890625 Z M 7.4375 -4.421875 C 7.582031 -4.441406 7.789062 -4.492188 8.0625 -4.578125 C 8.195312 -4.617188 8.226562 -4.6875 8.15625 -4.78125 L 7.96875 -5.015625 C 7.539062 -5.648438 7.148438 -6.191406 6.796875 -6.640625 C 6.773438 -6.742188 6.710938 -6.742188 6.609375 -6.640625 C 6.234375 -6.304688 6.046875 -5.941406 6.046875 -5.546875 C 6.046875 -5.253906 6.132812 -4.988281 6.3125 -4.75 C 6.488281 -4.519531 6.773438 -4.40625 7.171875 -4.40625 Z M 7.4375 -4.421875 "/></g></g></g><g fill="#a73121" fill-opacity="1"><g transform="translate(193.906097, 236.099749)"><g/></g></g><g fill="#a73121" fill-opacity="1"><g transform="translate(199.63517, 236.099749)"><g><path d="M 13.640625 -16.359375 C 13.617188 -16.222656 13.5625 -16.113281 13.46875 -16.03125 C 13.382812 -15.957031 13.273438 -15.921875 13.140625 -15.921875 L 7.65625 -15.921875 C 7.550781 -15.921875 7.5 -15.867188 7.5 -15.765625 L 7.140625 -12.875 C 7.109375 -12.78125 7.148438 -12.734375 7.265625 -12.734375 L 10.125 -12.734375 C 10.257812 -12.734375 10.363281 -12.691406 10.4375 -12.609375 C 10.507812 -12.523438 10.535156 -12.414062 10.515625 -12.28125 L 10.046875 -8.421875 C 9.984375 -8.117188 9.8125 -7.96875 9.53125 -7.96875 L 6.671875 -7.96875 C 6.578125 -7.96875 6.53125 -7.921875 6.53125 -7.828125 L 6.171875 -4.90625 C 6.128906 -4.800781 6.171875 -4.75 6.296875 -4.75 L 11.78125 -4.75 C 11.914062 -4.75 12.019531 -4.707031 12.09375 -4.625 C 12.164062 -4.550781 12.191406 -4.445312 12.171875 -4.3125 L 11.6875 -0.4375 C 11.675781 -0.300781 11.625 -0.191406 11.53125 -0.109375 C 11.445312 -0.0351562 11.332031 0 11.1875 0 L 0.59375 0 C 0.46875 0 0.367188 -0.0351562 0.296875 -0.109375 C 0.234375 -0.191406 0.210938 -0.300781 0.234375 -0.4375 L 2.65625 -20.234375 C 2.675781 -20.367188 2.726562 -20.472656 2.8125 -20.546875 C 2.90625 -20.628906 3.007812 -20.671875 3.125 -20.671875 L 13.734375 -20.671875 C 13.867188 -20.671875 13.96875 -20.628906 14.03125 -20.546875 C 14.101562 -20.472656 14.128906 -20.367188 14.109375 -20.234375 Z M 13.640625 -16.359375 "/></g></g></g><g fill="#a73121" fill-opacity="1"><g transform="translate(212.363161, 236.099749)"><g><path d="M 9.1875 0 C 8.90625 0 8.773438 -0.132812 8.796875 -0.40625 L 8.734375 -2.65625 C 8.753906 -2.695312 8.742188 -2.734375 8.703125 -2.765625 C 8.671875 -2.796875 8.632812 -2.8125 8.59375 -2.8125 L 6.03125 -2.8125 C 5.925781 -2.8125 5.851562 -2.757812 5.8125 -2.65625 L 5.25 -0.40625 C 5.195312 -0.132812 5.03125 0 4.75 0 L 0.265625 0 C -0.0234375 0 -0.132812 -0.15625 -0.0625 -0.46875 L 6.4375 -20.28125 C 6.519531 -20.539062 6.695312 -20.671875 6.96875 -20.671875 L 12.203125 -20.671875 C 12.472656 -20.671875 12.617188 -20.539062 12.640625 -20.28125 L 14.265625 -0.46875 L 14.265625 -0.40625 C 14.265625 -0.132812 14.117188 0 13.828125 0 Z M 7.03125 -7.203125 C 6.988281 -7.109375 7.015625 -7.0625 7.109375 -7.0625 L 8.5 -7.0625 C 8.5625 -7.0625 8.613281 -7.109375 8.65625 -7.203125 L 8.53125 -12.671875 C 8.53125 -12.742188 8.503906 -12.773438 8.453125 -12.765625 C 8.410156 -12.753906 8.390625 -12.722656 8.390625 -12.671875 Z M 7.03125 -7.203125 "/></g></g></g><g fill="#a73121" fill-opacity="1"><g transform="translate(227.571774, 236.099749)"><g><path d="M 15.328125 -20.671875 C 15.441406 -20.671875 15.53125 -20.628906 15.59375 -20.546875 C 15.664062 -20.472656 15.695312 -20.367188 15.6875 -20.234375 L 15.203125 -16.359375 C 15.179688 -16.222656 15.128906 -16.113281 15.046875 -16.03125 C 14.972656 -15.957031 14.867188 -15.921875 14.734375 -15.921875 L 11.3125 -15.921875 C 11.207031 -15.921875 11.15625 -15.867188 11.15625 -15.765625 L 9.265625 -0.4375 C 9.253906 -0.300781 9.207031 -0.191406 9.125 -0.109375 C 9.039062 -0.0351562 8.929688 0 8.796875 0 L 4.28125 0 C 4.144531 0 4.039062 -0.0351562 3.96875 -0.109375 C 3.90625 -0.191406 3.878906 -0.300781 3.890625 -0.4375 L 5.78125 -15.765625 C 5.78125 -15.867188 5.734375 -15.921875 5.640625 -15.921875 L 2.328125 -15.921875 C 2.191406 -15.921875 2.085938 -15.957031 2.015625 -16.03125 C 1.953125 -16.113281 1.929688 -16.222656 1.953125 -16.359375 L 2.421875 -20.234375 C 2.441406 -20.367188 2.492188 -20.472656 2.578125 -20.546875 C 2.671875 -20.628906 2.785156 -20.671875 2.921875 -20.671875 Z M 15.328125 -20.671875 "/></g></g></g><g fill="#a73121" fill-opacity="1"><g transform="translate(241.864918, 236.099749)"><g><path d="M 13.640625 -16.359375 C 13.617188 -16.222656 13.5625 -16.113281 13.46875 -16.03125 C 13.382812 -15.957031 13.273438 -15.921875 13.140625 -15.921875 L 7.65625 -15.921875 C 7.550781 -15.921875 7.5 -15.867188 7.5 -15.765625 L 7.140625 -12.875 C 7.109375 -12.78125 7.148438 -12.734375 7.265625 -12.734375 L 10.125 -12.734375 C 10.257812 -12.734375 10.363281 -12.691406 10.4375 -12.609375 C 10.507812 -12.523438 10.535156 -12.414062 10.515625 -12.28125 L 10.046875 -8.421875 C 9.984375 -8.117188 9.8125 -7.96875 9.53125 -7.96875 L 6.671875 -7.96875 C 6.578125 -7.96875 6.53125 -7.921875 6.53125 -7.828125 L 6.171875 -4.90625 C 6.128906 -4.800781 6.171875 -4.75 6.296875 -4.75 L 11.78125 -4.75 C 11.914062 -4.75 12.019531 -4.707031 12.09375 -4.625 C 12.164062 -4.550781 12.191406 -4.445312 12.171875 -4.3125 L 11.6875 -0.4375 C 11.675781 -0.300781 11.625 -0.191406 11.53125 -0.109375 C 11.445312 -0.0351562 11.332031 0 11.1875 0 L 0.59375 0 C 0.46875 0 0.367188 -0.0351562 0.296875 -0.109375 C 0.234375 -0.191406 0.210938 -0.300781 0.234375 -0.4375 L 2.65625 -20.234375 C 2.675781 -20.367188 2.726562 -20.472656 2.8125 -20.546875 C 2.90625 -20.628906 3.007812 -20.671875 3.125 -20.671875 L 13.734375 -20.671875 C 13.867188 -20.671875 13.96875 -20.628906 14.03125 -20.546875 C 14.101562 -20.472656 14.128906 -20.367188 14.109375 -20.234375 Z M 13.640625 -16.359375 "/></g></g></g><g fill="#a73121" fill-opacity="1"><g transform="translate(254.59291, 236.099749)"><g><path d="M 8 0 C 7.769531 0 7.632812 -0.128906 7.59375 -0.390625 L 6.734375 -7.828125 C 6.734375 -7.898438 6.703125 -7.9375 6.640625 -7.9375 C 6.566406 -7.9375 6.53125 -7.890625 6.53125 -7.796875 L 5.609375 -0.4375 C 5.585938 -0.300781 5.53125 -0.191406 5.4375 -0.109375 C 5.351562 -0.0351562 5.253906 0 5.140625 0 L 0.59375 0 C 0.46875 0 0.367188 -0.0351562 0.296875 -0.109375 C 0.234375 -0.191406 0.210938 -0.300781 0.234375 -0.4375 L 2.65625 -20.234375 C 2.675781 -20.367188 2.726562 -20.472656 2.8125 -20.546875 C 2.90625 -20.628906 3.007812 -20.671875 3.125 -20.671875 L 9.59375 -20.671875 C 11.164062 -20.671875 12.410156 -20.164062 13.328125 -19.15625 C 14.242188 -18.15625 14.703125 -16.828125 14.703125 -15.171875 C 14.703125 -14.703125 14.679688 -14.34375 14.640625 -14.09375 C 14.503906 -13.007812 14.195312 -12.035156 13.71875 -11.171875 C 13.25 -10.316406 12.644531 -9.625 11.90625 -9.09375 C 11.800781 -9.03125 11.769531 -8.960938 11.8125 -8.890625 L 13.078125 -0.5 L 13.078125 -0.390625 C 13.078125 -0.265625 13.035156 -0.164062 12.953125 -0.09375 C 12.878906 -0.03125 12.785156 0 12.671875 0 Z M 7.65625 -15.921875 C 7.550781 -15.921875 7.5 -15.867188 7.5 -15.765625 L 7.0625 -12.3125 C 7.0625 -12.21875 7.109375 -12.171875 7.203125 -12.171875 L 7.59375 -12.171875 C 8.0625 -12.171875 8.457031 -12.375 8.78125 -12.78125 C 9.101562 -13.195312 9.265625 -13.769531 9.265625 -14.5 C 9.265625 -14.945312 9.15625 -15.296875 8.9375 -15.546875 C 8.726562 -15.796875 8.4375 -15.921875 8.0625 -15.921875 Z M 7.65625 -15.921875 "/></g></g></g><g fill="#a73121" fill-opacity="1"><g transform="translate(268.620276, 236.099749)"><g><path d="M 4.421875 -0.0625 C 4.285156 -0.0625 4.179688 -0.0976562 4.109375 -0.171875 C 4.046875 -0.253906 4.023438 -0.363281 4.046875 -0.5 L 4.875 -7.328125 C 4.894531 -7.359375 4.894531 -7.414062 4.875 -7.5 L 2.421875 -20.171875 L 2.421875 -20.28125 C 2.421875 -20.539062 2.554688 -20.671875 2.828125 -20.671875 L 7.59375 -20.671875 C 7.863281 -20.671875 8.007812 -20.539062 8.03125 -20.28125 L 8.390625 -14.359375 C 8.390625 -14.296875 8.410156 -14.265625 8.453125 -14.265625 C 8.503906 -14.265625 8.539062 -14.296875 8.5625 -14.359375 L 10.359375 -20.28125 C 10.441406 -20.539062 10.617188 -20.671875 10.890625 -20.671875 L 15.65625 -20.671875 C 15.8125 -20.671875 15.910156 -20.625 15.953125 -20.53125 C 16.003906 -20.445312 16.003906 -20.328125 15.953125 -20.171875 L 10.3125 -7.5 L 10.28125 -7.328125 L 9.421875 -0.5 C 9.398438 -0.363281 9.347656 -0.253906 9.265625 -0.171875 C 9.191406 -0.0976562 9.085938 -0.0625 8.953125 -0.0625 Z M 4.421875 -0.0625 "/></g></g></g></svg>